<svg xmlns="http://www.w3.org/2000/svg" viewBox="0 0 144.6 150">
<!-- SVG created with Arrow, by QuiverAI (https://quiver.ai) -->
  <style type="text/css">.cls-0 {fill:#77CCB8;}
.cls-1 {fill:#FFFFFF;}
.cls-2 {fill:#0C4185;}</style>
  <path class="cls-0" d="m113.5 2.1h-82.1c-16.5 0-30.1 13.3-30.1 29.9v85.3c0 16.6 11.7 30.7 29.9 30.7h81.3c16.5 0 30.8-12.6 30.8-31v-85c0-15-12.5-29.9-29.8-29.9z"/>
  <path class="cls-1" d="m118.7 106.9c-11.3 5.6-25.7 11.6-46.2 11.8-20.5 0-35.6-5.7-48.8-13.1-1.4-0.8-2.6 0.8-1.4 2 10.7 8.5 27 19.1 50.2 19.1s39.3-8.6 48.1-17.5c1.4-1.1 0-3.3-1.9-2.3z"/>
  <path class="cls-2" d="m95.9 30.4c-5.4 0.1-10.4 2.3-14.8 6.3l-25.2 25 19 18.7c3.5 3.6 3.5 3.2 6 11.4 1.3 4.5 2.9 9.5 7.6 9.6 1.1 0 2.3-0.5 3.2-1.3 8.2-7.5 18.7-32.8 18.6-50.5-0.3-12.6-5.9-19.2-14.4-19.2zm3.1 6.5-25.7 24.8 13.7 13c3.4 3.6 4.9 7.3 6.2 12.5-1.4 2.7-2.8 5-4.4 6.9-1.7-5.1-2.7-11.4-6.7-15.6l-17.4-16.8 20.4-19.9c3.2-2.9 6.9-5.1 11.1-5.2 0.9-0.1 1.7 0.1 2.3 0.3h0.5zm-2 42.5c-1.2-3.5-3.2-6.5-6-9.4l-9-8.3 20.5-20.3c0.9 1.5 1.4 4.2 1.4 7.3 0 7.2-1.9 17.7-6.9 30.7zm-44.1-48.9c-8.2 0.2-15.2 7.4-15.2 20.3 0 13.3 7.7 37.6 16.7 47.9 4.1 4.7 8.9 3 10.6-3.1 1.8-6.2 2-8.2 4-12l-4.1-4.4c-4.2 4.7-5 12.7-6.4 14.9-4.1-4.2-14.5-25.5-14.5-43 0-4.1 1.1-14.3 8.9-14.4 4 0 7.8 2.4 12.8 6.2l4.1-4.2c-4.7-4-9.9-8.2-16.9-8.2z"/>
</svg>